<svg width="199" height="226" viewBox="0 0 199 226" fill="none" xmlns="http://www.w3.org/2000/svg">
<g clip-path="url(#clip0_2_32)">
<path d="M198.835 118.415V225.649C134.714 225.293 70.7501 224.941 6.57129 224.586V215.561C10.3281 214.658 10.533 214.748 10.738 218.42C10.8181 219.88 11.3177 220.53 12.7845 220.421C13.4475 220.373 14.1168 220.421 14.7862 220.421C73.4884 220.421 132.191 220.395 190.893 220.494C193.887 220.501 194.47 219.62 194.483 216.816C194.579 191.583 194.835 166.352 195.043 141.119C195.053 140.011 195.043 138.904 194.464 137.687C190.492 146.2 186.524 154.712 182.146 164.095C177.73 154.437 173.682 145.585 169.633 136.736C169.355 136.775 169.076 136.813 168.801 136.852C167.625 145.098 166.453 153.345 165.255 161.749H160.31C162.469 148.06 164.605 134.524 166.741 120.992C167.007 120.886 167.273 120.777 167.542 120.672C172.32 131.044 177.099 141.414 182.22 152.529C187.729 140.706 192.949 129.498 198.173 118.293C198.397 118.338 198.618 118.38 198.842 118.424L198.835 118.415Z" fill="#F8F8F3"/>
<path d="M6.57435 5.64602V104.22H16.6436V109.32C11.83 109.32 7.19888 109.374 2.57419 109.243C2.06176 109.227 1.34115 108.219 1.14579 107.546C0.889574 106.663 1.05291 105.657 1.05291 104.707C1.05291 71.1817 1.08814 37.6567 0.988857 4.13176C0.979249 1.23771 1.7543 0.43736 4.65914 0.440561C66.0195 0.523797 127.377 0.504589 188.737 0.510992C192.606 0.510992 192.609 0.526999 192.612 4.33985C192.612 6.23188 192.612 8.1207 192.612 10.2336C191.11 10.3072 189.848 10.3681 188.737 10.4225C188.513 10.1728 188.41 10.112 188.391 10.0319C187.667 7.11226 185.701 5.65136 182.492 5.64922C125.039 5.64922 67.5857 5.64922 10.1325 5.64922H6.57435V5.64602Z" fill="#F8F8F3"/>
<path d="M149.143 142.342C149.396 153.72 140.62 163.926 126.122 162.604C116.917 161.765 107.197 153.726 108.132 140.671C108.946 129.344 117.161 121.36 128.687 121.331C140.758 121.299 149.444 130.052 149.143 142.345V142.342ZM128.457 157.587C138.254 157.606 144.323 150.822 144.323 141.951C144.323 133.192 138.17 126.738 129.075 126.453C120.492 126.185 112.92 132.831 113.032 142.339C113.135 151.114 119.867 157.648 128.453 157.587H128.457Z" fill="#F8F8F3"/>
<path d="M77.1852 162.572C64.6339 162.975 56.3261 153.425 56.4766 142.073C56.6336 130.199 64.541 121.363 77.1917 121.331C89.1986 121.303 97.8971 130.151 97.8522 142.355C97.8138 152.855 89.4708 163.305 77.1852 162.572ZM92.6254 142.073C93.3044 133.926 85.5443 126.284 77.0027 126.374C68.5091 126.463 61.7034 133.551 61.3383 142.044C61.0405 148.931 67.891 157.93 77.2653 157.59C86.2457 157.264 92.6254 151.104 92.6254 142.073Z" fill="#F8F8F3"/>
<path d="M185.416 94.5098C182.239 94.5098 180.164 94.5098 178.085 94.5098C175.064 94.5055 173.649 92.812 173.842 89.4292C178.905 89.4292 184.004 89.3908 189.099 89.4964C189.544 89.506 190.384 90.5112 190.342 90.9979C189.903 96.2738 188.849 101.447 184.849 105.257C178.822 111 171.718 111.871 164.045 109.063C156.051 106.137 152.041 99.9457 151.131 91.9199C150.235 84.0156 153.293 77.488 159.791 72.6507C166.722 67.4933 180.625 67.2788 187.847 76.4636C188.917 77.8241 188.507 78.6725 187.27 79.4857C186.085 80.2636 185.073 81.8771 183.562 79.761C178.703 72.9612 169.082 73.0669 163.792 76.185C158.027 79.5817 155.381 84.7776 156.153 91.5133C156.758 96.8052 159.138 100.711 164.051 103.47C171.315 107.549 179.075 105.11 182.835 99.8561C183.818 98.4827 184.343 96.7764 185.416 94.5098Z" fill="#F8F8F3"/>
<path d="M108.161 80.8976C108.161 84.291 108.161 87.6813 108.161 91.0748C108.161 96.5972 108.126 102.116 108.171 107.639C108.184 109.303 107.614 110.123 105.852 110.046C104.273 109.976 102.989 109.732 102.992 107.732C103.008 95.0701 103.005 82.4118 103.024 69.7503C103.024 69.4942 103.207 69.2381 103.639 68.0824C113.75 78.6726 123.55 88.9363 133.898 99.7762V69.7503H138.36V111.637C128.197 100.954 118.564 90.8283 108.93 80.6991C108.674 80.7663 108.418 80.8303 108.161 80.8976Z" fill="#F8F8F3"/>
<path d="M24.4932 122.052C29.8513 121.498 35.1197 121.411 39.9173 123.748C42.8158 125.157 44.3275 128.102 44.6253 131.432C45.2114 138.02 42.803 142.752 35.6161 144.762C39.6611 150.474 43.4884 155.874 47.4501 161.467C43.8791 162.44 41.397 162.127 39.5202 159.012C37.2751 155.276 34.6553 151.764 32.1668 148.178C31.4526 147.151 30.6327 146.196 29.8609 145.21C29.6143 145.29 29.3677 145.371 29.1211 145.451V161.682H24.4932V122.055V122.052ZM29.2203 127.385C29.1435 127.555 28.9994 127.721 28.9962 127.891C28.9577 130.542 28.9289 133.196 28.9129 135.846C28.8979 138.689 30.3509 140.079 33.2718 140.015C33.5568 140.008 33.8418 140.031 34.1237 140.002C38.8028 139.531 41.4482 134.226 38.9886 130.25C37.1502 127.279 33.7874 126.293 29.2171 127.385H29.2203Z" fill="#F8F8F3"/>
<path d="M74.3763 69.8687C68.9413 84.0445 63.6473 97.8457 58.3532 111.647C58.129 111.676 57.9081 111.701 57.6839 111.73C52.4346 97.9289 47.1854 84.1277 41.917 70.2753C47.5826 69.142 47.147 69.7087 48.3736 73.0733C51.1728 80.7407 53.988 88.4016 56.8031 96.0593C57.0882 96.8341 57.4245 97.5896 58.0842 99.1999C59.5863 95.0957 60.7905 91.7503 62.0299 88.4208C63.9195 83.3562 65.7963 78.2884 67.7499 73.2494C69.1815 69.5582 69.2328 69.5774 74.3667 69.8687H74.3763Z" fill="#F8F8F3"/>
<path d="M27.2062 69.8657H32.0135C32.0903 70.791 32.2441 71.7866 32.2441 72.7822C32.2633 84.0927 32.2441 95.4064 32.2761 106.717C32.2825 108.609 32.1832 110.072 29.6371 110.072C27.0461 110.072 27.0429 108.542 27.0461 106.685C27.0717 95.2784 27.0557 83.8718 27.0621 72.4653C27.0621 71.7162 27.1422 70.967 27.203 69.8625L27.2062 69.8657Z" fill="#F8F8F3"/>
<path d="M84.1859 69.9458H88.7338C88.7338 72.7054 88.7338 75.2505 88.7338 77.7956C88.7338 87.7808 88.7178 97.7627 88.7466 107.748C88.7498 109.22 88.4007 110.078 86.6937 110.053C85.1115 110.03 84.1667 109.643 84.1699 107.825C84.1988 95.2848 84.1859 82.7418 84.1859 69.9426V69.9458Z" fill="#F8F8F3"/>
</g>
<defs>
<clipPath id="clip0_2_32">
<rect width="197.846" height="225.208" fill="white" transform="translate(0.98877 0.44043)"/>
</clipPath>
</defs>
</svg>
