<?xml version="1.0" encoding="utf-8"?>
<!-- Generator: Adobe Illustrator 26.4.1, SVG Export Plug-In . SVG Version: 6.00 Build 0)  -->
<svg version="1.1" id="Layer_1" xmlns="http://www.w3.org/2000/svg" xmlns:xlink="http://www.w3.org/1999/xlink" x="0px" y="0px"
	 viewBox="0 0 24 24" style="enable-background:new 0 0 24 24;" xml:space="preserve">
<path d="M7.8,2h8.4C19.4,2,22,4.6,22,7.8v8.4c0,1.5-0.6,3-1.7,4.1c-1.1,1.1-2.6,1.7-4.1,1.7H7.8C4.6,22,2,19.4,2,16.2V7.8
	c0-1.5,0.6-3,1.7-4.1S6.3,2,7.8,2z M7.6,4c-1,0-1.9,0.4-2.5,1.1C4.4,5.7,4,6.6,4,7.6v8.8c0,2,1.6,3.6,3.6,3.6h8.8
	c1,0,1.9-0.4,2.5-1.1s1.1-1.6,1.1-2.5V7.6c0-2-1.6-3.6-3.6-3.6H7.6z M17.3,5.5c0.3,0,0.6,0.1,0.9,0.4c0.2,0.2,0.4,0.6,0.4,0.9
	s-0.1,0.6-0.4,0.9C17.9,7.9,17.6,8,17.3,8s-0.6-0.1-0.9-0.4C16.1,7.4,16,7.1,16,6.8s0.1-0.6,0.4-0.9C16.6,5.6,16.9,5.5,17.3,5.5z
	 M12,7c1.3,0,2.6,0.5,3.5,1.5C16.5,9.4,17,10.7,17,12s-0.5,2.6-1.5,3.5C14.6,16.5,13.3,17,12,17s-2.6-0.5-3.5-1.5
	C7.5,14.6,7,13.3,7,12s0.5-2.6,1.5-3.5C9.4,7.5,10.7,7,12,7z M12,9c-0.8,0-1.6,0.3-2.1,0.9C9.3,10.4,9,11.2,9,12s0.3,1.6,0.9,2.1
	c0.6,0.6,1.3,0.9,2.1,0.9s1.6-0.3,2.1-0.9S15,12.8,15,12s-0.3-1.6-0.9-2.1C13.6,9.3,12.8,9,12,9z"/>
</svg>
